<?xml version="1.0" encoding="UTF-8" standalone="no"?>
<svg
   xmlns:dc="http://purl.org/dc/elements/1.1/"
   xmlns:cc="http://creativecommons.org/ns#"
   xmlns:rdf="http://www.w3.org/1999/02/22-rdf-syntax-ns#"
   xmlns:svg="http://www.w3.org/2000/svg"
   xmlns="http://www.w3.org/2000/svg"
   xmlns:sodipodi="http://sodipodi.sourceforge.net/DTD/sodipodi-0.dtd"
   xmlns:inkscape="http://www.inkscape.org/namespaces/inkscape"
   width="1280"
   height="720"
   viewBox="0 0 1280 720"
   fill="none"
   version="1.1"
   id="svg60"
   sodipodi:docname="background.svg"
   inkscape:export-filename="E:\project\OverWolfs\last verion\sample-app-master\sample-app-master\ts\public\img\background.png"
   inkscape:export-xdpi="19.494101"
   inkscape:export-ydpi="19.494101"
   inkscape:version="1.0.1 (3bc2e813f5, 2020-09-07)">
  <metadata
     id="metadata64">
    <rdf:RDF>
      <cc:Work
         rdf:about="">
        <dc:format>image/svg+xml</dc:format>
        <dc:type
           rdf:resource="http://purl.org/dc/dcmitype/StillImage" />
      </cc:Work>
    </rdf:RDF>
  </metadata>
  <sodipodi:namedview
     pagecolor="#ffffff"
     bordercolor="#666666"
     borderopacity="1"
     objecttolerance="10"
     gridtolerance="10"
     guidetolerance="10"
     inkscape:pageopacity="0"
     inkscape:pageshadow="2"
     inkscape:window-width="776"
     inkscape:window-height="480"
     id="namedview62"
     showgrid="false"
     inkscape:zoom="0.24351648"
     inkscape:cx="640"
     inkscape:cy="360"
     inkscape:window-x="0"
     inkscape:window-y="0"
     inkscape:window-maximized="0"
     inkscape:current-layer="svg60" />
  <rect
     width="1280"
     height="720"
     fill="#3D3D3D"
     id="rect2" />
  <path
     d="M1349.83 521H1140.33C1121.33 521 1123.83 545.5 1140.33 545.5C1197.33 546.333 1318.97 545.5 1349.83 545.5C1367.83 545.5 1367.83 521 1349.83 521Z"
     fill="#272727"
     id="path4" />
  <path
     d="M1349.83 521H1140.33C1121.33 521 1123.83 545.5 1140.33 545.5C1197.33 546.333 1318.97 545.5 1349.83 545.5C1367.83 545.5 1367.83 521 1349.83 521Z"
     fill="url(#paint0_linear)"
     id="path6" />
  <path
     d="M1349.83 647.5H1140.33C1121.33 647.5 1123.83 672 1140.33 672C1197.33 672.833 1318.97 672 1349.83 672C1367.83 672 1367.83 647.5 1349.83 647.5Z"
     fill="#272727"
     id="path8" />
  <path
     d="M1349.83 647.5H1140.33C1121.33 647.5 1123.83 672 1140.33 672C1197.33 672.833 1318.97 672 1349.83 672C1367.83 672 1367.83 647.5 1349.83 647.5Z"
     fill="url(#paint1_linear)"
     id="path10" />
  <path
     d="M1349.83 585H1245.08H1140.33C1121.33 585 1123.83 609.5 1140.33 609.5C1197.33 610.333 1318.97 609.5 1349.83 609.5C1367.83 609.5 1367.83 585 1349.83 585Z"
     fill="#272727"
     id="path12" />
  <path
     d="M1349.83 585H1245.08H1140.33C1121.33 585 1123.83 609.5 1140.33 609.5C1197.33 610.333 1318.97 609.5 1349.83 609.5C1367.83 609.5 1367.83 585 1349.83 585Z"
     fill="url(#paint2_linear)"
     id="path14" />
  <path
     d="M-78.499 272.37L131.001 272.37C150.001 272.37 147.501 247.87 131.001 247.87C74.001 247.037 -47.6341 247.87 -78.499 247.87C-96.4989 247.87 -96.4989 272.37 -78.499 272.37Z"
     fill="#272727"
     id="path16" />
  <path
     d="M-78.499 272.37L131.001 272.37C150.001 272.37 147.501 247.87 131.001 247.87C74.001 247.037 -47.6341 247.87 -78.499 247.87C-96.4989 247.87 -96.4989 272.37 -78.499 272.37Z"
     fill="url(#paint3_linear)"
     id="path18" />
  <path
     d="M-78.4992 145.87L131.001 145.87C150.001 145.87 147.501 121.37 131.001 121.37C74.0008 120.537 -47.6343 121.37 -78.4992 121.37C-96.4991 121.37 -96.4991 145.87 -78.4992 145.87Z"
     fill="#272727"
     id="path20" />
  <path
     d="M-78.4992 145.87L131.001 145.87C150.001 145.87 147.501 121.37 131.001 121.37C74.0008 120.537 -47.6343 121.37 -78.4992 121.37C-96.4991 121.37 -96.4991 145.87 -78.4992 145.87Z"
     fill="url(#paint4_linear)"
     id="path22" />
  <path
     d="M-78.499 208.37H26.251L131.001 208.37C150.001 208.37 147.501 183.87 131.001 183.87C74.001 183.037 -47.6341 183.87 -78.499 183.87C-96.4989 183.87 -96.4989 208.37 -78.499 208.37Z"
     fill="#272727"
     id="path24" />
  <path
     d="M-78.499 208.37H26.251L131.001 208.37C150.001 208.37 147.501 183.87 131.001 183.87C74.001 183.037 -47.6341 183.87 -78.499 183.87C-96.4989 183.87 -96.4989 208.37 -78.499 208.37Z"
     fill="url(#paint5_linear)"
     id="path26" />
  <defs
     id="defs58">
    <linearGradient
       id="paint0_linear"
       x1="1245.17"
       y1="521"
       x2="1245.17"
       y2="672.37"
       gradientUnits="userSpaceOnUse">
      <stop
         stop-color="#FAA931"
         id="stop28" />
      <stop
         offset="1"
         stop-color="white"
         stop-opacity="0"
         id="stop30" />
    </linearGradient>
    <linearGradient
       id="paint1_linear"
       x1="1245.17"
       y1="521"
       x2="1245.17"
       y2="672.37"
       gradientUnits="userSpaceOnUse">
      <stop
         stop-color="#FAA931"
         id="stop33" />
      <stop
         offset="1"
         stop-color="white"
         stop-opacity="0"
         id="stop35" />
    </linearGradient>
    <linearGradient
       id="paint2_linear"
       x1="1245.17"
       y1="521"
       x2="1245.17"
       y2="672.37"
       gradientUnits="userSpaceOnUse">
      <stop
         stop-color="#FAA931"
         id="stop38" />
      <stop
         offset="1"
         stop-color="white"
         stop-opacity="0"
         id="stop40" />
    </linearGradient>
    <linearGradient
       id="paint3_linear"
       x1="26.1655"
       y1="272.37"
       x2="26.1655"
       y2="121"
       gradientUnits="userSpaceOnUse">
      <stop
         stop-color="#FAA931"
         id="stop43" />
      <stop
         offset="1"
         stop-color="white"
         stop-opacity="0"
         id="stop45" />
    </linearGradient>
    <linearGradient
       id="paint4_linear"
       x1="26.1655"
       y1="272.37"
       x2="26.1655"
       y2="121"
       gradientUnits="userSpaceOnUse">
      <stop
         stop-color="#FAA931"
         id="stop48" />
      <stop
         offset="1"
         stop-color="white"
         stop-opacity="0"
         id="stop50" />
    </linearGradient>
    <linearGradient
       id="paint5_linear"
       x1="26.1655"
       y1="272.37"
       x2="26.1655"
       y2="121"
       gradientUnits="userSpaceOnUse">
      <stop
         stop-color="#FAA931"
         id="stop53" />
      <stop
         offset="1"
         stop-color="white"
         stop-opacity="0"
         id="stop55" />
    </linearGradient>
  </defs>
</svg>
