<svg xmlns="http://www.w3.org/2000/svg" xmlns:xlink="http://www.w3.org/1999/xlink" viewBox="0 0 480 81"><defs><style>.cls-1{fill:none;}.cls-2{fill:#fbb03b;}.cls-3{fill:#f7931e;}.cls-4{fill:url(#linear-gradient);}.cls-5{fill:#fff;}</style><linearGradient id="linear-gradient" x1="442.43" y1="99.82" x2="569" y2="99.82" gradientUnits="userSpaceOnUse"><stop offset="0" stop-color="#fbb03b"/><stop offset="0.5" stop-color="#f7941f"/><stop offset="1" stop-color="#f7931e"/></linearGradient></defs><g id="T"><polygon class="cls-1" points="71.86 8.44 116.83 8.26 71.86 8.44 71.86 8.44"/><polygon class="cls-1" points="59.79 8.49 59.79 8.49 3.81 8.72 0 10.86 3.92 8.72 59.79 8.49"/><polygon class="cls-2" points="11.64 0 3.81 8.72 59.79 8.49 59.79 8.34 71.86 8.34 71.86 8.44 116.83 8.26 123.18 0 11.64 0"/><polygon class="cls-3" points="59.79 8.95 59.79 8.49 3.92 8.72 0 10.86 50.69 10.72 50.69 10.48 59.79 8.95"/><polygon class="cls-3" points="71.86 10.66 110.69 10.55 116.83 8.26 71.86 8.44 71.86 10.66"/><polygon class="cls-3" points="11.64 0 6.35 3.06 0 10.86 3.81 8.72 11.64 0"/><polygon class="cls-3" points="50.69 10.48 50.69 10.72 50.87 66.93 59.79 72.59 59.79 8.95 50.69 10.48"/><polygon class="cls-2" points="71.86 8.44 71.86 8.34 59.79 8.34 59.79 8.49 59.79 8.49 59.79 8.95 59.79 72.59 71.86 66.93 71.86 10.66 71.86 8.44 71.86 8.44"/></g><g id="S"><path class="cls-4" d="M453.64,100.93l-.33-.33c24.65-12.79,100-36,100-36S456.6,86,446.62,96.55c0,0-9.06,7.55-.52,11,8.86,7.24,109.43-.92,98.72,5.2S475.21,135,475.21,135s59.63-5.92,89.57-24.68C592,93.25,479.61,107.58,453.64,100.93Z" transform="translate(-440 -54)"/></g><g id="sign"><path class="cls-5" d="M612.77,89.56v-.28c0-2.45-1.72-4.47-3.79-4.47H592.14c-2.07,0-3.79,2-3.79,4.47v.28c0,2.45,1.72,4.47,3.79,4.47h14.94a12.23,12.23,0,0,1,9.66,5c.18.21.3.42.48.63a17.3,17.3,0,0,1,3,9.78c0,8.53-5.87,15.45-13.1,15.45h-13c-7.23,0-13.1-6.92-13.1-15.45h7.41c0,3.71,2.55,6.71,5.69,6.71h13c3.14,0,5.75-3,5.75-6.71s-2.61-6.71-5.75-6.71H592.14a10.28,10.28,0,0,1-7.76-3.7A12.08,12.08,0,0,1,583,97a14.62,14.62,0,0,1-2-7.48v-.28C581,81.94,586,76,592.14,76H609c6.16,0,11.2,5.94,11.2,13.21v.28Z" transform="translate(-440 -54)"/><path class="cls-5" d="M674.89,76.07v8.74h-17V125h-7.41V84.81h-17V76.07Z" transform="translate(-440 -54)"/><path class="cls-5" d="M701.46,119l3,5.68h-6.54l-3-5.68-3.13-5.94-.14-.28a5.83,5.83,0,0,0-4.95-2.72h-5.85V124.7H675V92.91h20.66a8.92,8.92,0,0,1,6.22,2.5,8.38,8.38,0,0,1,2.57,6,8.59,8.59,0,0,1-5.14,7.81,8.11,8.11,0,0,1-2.53.68Zm-5.8-14.62a3,3,0,0,0,3-2.9,2.92,2.92,0,0,0-3-2.91H680.84v5.86Z" transform="translate(-440 -54)"/><path class="cls-5" d="M747.93,124.12h-6.54l-3-5.67-7.15-13.63-7.15,13.63-3,5.67h-6.55l3-5.67,13.69-26.11,13.7,26.11Z" transform="translate(-440 -54)"/><path class="cls-5" d="M762.18,107.89a10.38,10.38,0,0,0,10.52,10.22h16.36v5.68H772.7a15.9,15.9,0,1,1,0-31.79h16.36v5.68H772.7A10.38,10.38,0,0,0,762.18,107.89Z" transform="translate(-440 -54)"/><path class="cls-5" d="M822,105.58l14.17,19h-7.2l-11.32-15.17-8.27,7.31v7.86H803.5V92.82h5.84v16.26l4.82-4.27L818.5,101l9.12-8.13h8.65Z" transform="translate(-440 -54)"/><path class="cls-5" d="M851.51,101.4v3h21V110h-21v6a3,3,0,0,0,3,2.9h23.89v5.68H854.5a8.69,8.69,0,0,1-8.78-8.58V101.4a8.69,8.69,0,0,1,8.78-8.58h23.89V98.5H854.5A3,3,0,0,0,851.51,101.4Z" transform="translate(-440 -54)"/><path class="cls-5" d="M917,118.2l3,5.68h-6.54l-3-5.68-3.13-6-.14-.27a5.83,5.83,0,0,0-5-2.72h-5.85v14.62h-5.84V92.09h20.66a8.88,8.88,0,0,1,6.22,2.5,8.38,8.38,0,0,1,2.57,6,8.59,8.59,0,0,1-5.14,7.81,8.11,8.11,0,0,1-2.53.68Zm-5.8-14.62a2.86,2.86,0,0,0,1.22-.27,2.89,2.89,0,0,0,1.77-2.64,2.89,2.89,0,0,0-3-2.9H896.39v5.86Z" transform="translate(-440 -54)"/></g></svg>